<svg width="32" height="25" viewBox="0 0 32 25" fill="none" xmlns="http://www.w3.org/2000/svg">
    <g clip-path="url(#clip0_1013_2)">
    <path d="M27.1071 2.03115C25.0047 1.0686 22.7851 0.385736 20.5052 0C20.1933 0.557718 19.911 1.13153 19.6596 1.71905C17.231 1.3531 14.7614 1.3531 12.3328 1.71905C12.0813 1.1316 11.799 0.557785 11.4872 0C9.20579 0.388994 6.98482 1.07348 4.88027 2.03618C0.702194 8.21771 -0.430416 14.2457 0.135889 20.1881C2.58267 21.9959 5.32132 23.3708 8.23279 24.2529C8.88837 23.3712 9.46847 22.4358 9.96694 21.4567C9.02016 21.1031 8.10635 20.6668 7.23609 20.1529C7.46513 19.9868 7.68914 19.8156 7.90559 19.6495C10.4378 20.8404 13.2017 21.4578 16 21.4578C18.7983 21.4578 21.5621 20.8404 24.0944 19.6495C24.3133 19.8282 24.5373 19.9994 24.7639 20.1529C23.8919 20.6676 22.9764 21.1047 22.028 21.4592C22.5258 22.4379 23.106 23.3725 23.7621 24.2529C26.6761 23.3743 29.4168 22.0001 31.8641 20.1907C32.5285 13.2994 30.7289 7.32673 27.1071 2.03115ZM10.6843 16.5336C9.10616 16.5336 7.8024 15.1015 7.8024 13.3396C7.8024 11.5778 9.06085 10.1331 10.6792 10.1331C12.2976 10.1331 13.5913 11.5778 13.5636 13.3396C13.5359 15.1015 12.2926 16.5336 10.6843 16.5336ZM21.3157 16.5336C19.7351 16.5336 18.4363 15.1015 18.4363 13.3396C18.4363 11.5778 19.6948 10.1331 21.3157 10.1331C22.9366 10.1331 24.2202 11.5778 24.1925 13.3396C24.1648 15.1015 22.924 16.5336 21.3157 16.5336Z" fill="white"/>
    </g>
    <defs>
    <clipPath id="clip0_1013_2">
    <rect width="32" height="24.2529" fill="currentColor"/>
    </clipPath>
    </defs>
    </svg>
    