<svg width="32" height="32" viewBox="0 0 32 32" fill="none" xmlns="http://www.w3.org/2000/svg">
<g clip-path="url(#clip0_312_2)">
<path d="M7.0216 13.0194C8.26505 9.25151 11.8059 6.54545 16 6.54545C18.2545 6.54545 20.2909 7.34545 21.8909 8.65455L26.5455 4C23.7091 1.52727 20.0727 0 16 0C9.69343 0 4.26367 3.59773 1.65332 8.8667L7.0216 13.0194Z" fill="white"/>
<path d="M21.3877 24.0168C19.9346 24.9551 18.0881 25.4546 16 25.4546C11.822 25.4546 8.29217 22.7692 7.03599 19.0239L1.64996 23.1133C4.25707 28.3915 9.68668 32 16 32C19.9105 32 23.6471 30.6099 26.4456 27.9995L21.3877 24.0168Z" fill="white"/>
<path d="M26.4456 27.9994C29.3722 25.2694 31.2727 21.2049 31.2727 16C31.2727 15.0545 31.1273 14.0363 30.9091 13.0909H16V19.2727H24.5818C24.1584 21.3515 23.0217 22.9616 21.3876 24.0168L26.4456 27.9994Z" fill="white"/>
<path d="M7.03598 19.0238C6.71777 18.0751 6.54545 17.0583 6.54545 16C6.54545 14.9577 6.71258 13.9557 7.0216 13.0194L1.65332 8.8667C0.582116 11.0139 0 13.4338 0 16C0 18.5594 0.593041 20.9736 1.64995 23.1133L7.03598 19.0238Z" fill="white"/>
</g>
<defs>
<clipPath id="clip0_312_2">
<rect width="32" height="32" fill="white"/>
</clipPath>
</defs>
</svg>
