<svg width="115" height="34" viewBox="0 0 115 34" fill="none" xmlns="http://www.w3.org/2000/svg">
<path d="M0.107788 26V0.981812H9.97824C11.8676 0.981812 13.4801 1.31979 14.8157 1.99573C16.1595 2.66354 17.1816 3.6123 17.8819 4.84204C18.5905 6.06363 18.9447 7.50103 18.9447 9.15425C18.9447 10.8156 18.5864 12.2449 17.8697 13.442C17.1531 14.6311 16.1147 15.5432 14.7547 16.1784C13.4028 16.8136 11.7658 17.1312 9.84387 17.1312H3.23506V12.8801H8.98875C9.9986 12.8801 10.8374 12.7417 11.5052 12.4648C12.173 12.1879 12.6698 11.7725 12.9956 11.2187C13.3295 10.665 13.4964 9.97679 13.4964 9.15425C13.4964 8.32357 13.3295 7.62319 12.9956 7.05312C12.6698 6.48304 12.169 6.05141 11.493 5.75823C10.8252 5.45691 9.98232 5.30624 8.96432 5.30624H5.39728V26H0.107788ZM13.6186 14.6148L19.8365 26H13.9973L7.91375 14.6148H13.6186Z" fill="currentColor"/>
<path d="M31.8977 18.0108V7.23636H37.1017V26H32.1054V22.5918H31.91C31.4865 23.6912 30.782 24.5748 29.7966 25.2426C28.8193 25.9104 27.6262 26.2443 26.2173 26.2443C24.9632 26.2443 23.8597 25.9593 22.9068 25.3892C21.954 24.8191 21.2088 24.0088 20.6713 22.9582C20.142 21.9077 19.8732 20.6494 19.8651 19.1835V7.23636H25.069V18.2551C25.0772 19.3627 25.3744 20.2382 25.9608 20.8815C26.5472 21.5249 27.3331 21.8466 28.3185 21.8466C28.9456 21.8466 29.5319 21.7041 30.0776 21.419C30.6232 21.1258 31.063 20.6942 31.3969 20.1241C31.7389 19.5541 31.9059 18.8496 31.8977 18.0108Z" fill="currentColor"/>
<path d="M38 33.0364V7.23636H43.1307V10.3881H43.3628C43.5908 9.88314 43.9206 9.37007 44.3523 8.84886C44.792 8.3195 45.3621 7.87973 46.0625 7.52954C46.771 7.17121 47.6506 6.99204 48.7011 6.99204C50.0693 6.99204 51.3316 7.35037 52.4881 8.06704C53.6445 8.77556 54.5688 9.84649 55.2611 11.2798C55.9533 12.705 56.2994 14.4926 56.2994 16.6426C56.2994 18.7356 55.9615 20.5028 55.2855 21.9443C54.6177 23.3776 53.7056 24.4649 52.5492 25.206C51.4009 25.9389 50.1141 26.3054 48.6889 26.3054C47.6791 26.3054 46.8199 26.1384 46.1114 25.8045C45.411 25.4706 44.8368 25.0512 44.3889 24.5463C43.941 24.0332 43.599 23.5161 43.3628 22.9949H43.204V33.0364H38ZM43.094 16.6182C43.094 17.7339 43.2488 18.7071 43.5582 19.5378C43.8677 20.3685 44.3156 21.0159 44.902 21.4801C45.4884 21.9362 46.201 22.1642 47.0398 22.1642C47.8867 22.1642 48.6034 21.9321 49.1898 21.4679C49.7761 20.9955 50.22 20.344 50.5213 19.5133C50.8308 18.6745 50.9855 17.7095 50.9855 16.6182C50.9855 15.535 50.8349 14.5822 50.5335 13.7597C50.2322 12.9371 49.7884 12.2937 49.202 11.8295C48.6156 11.3653 47.8949 11.1332 47.0398 11.1332C46.1928 11.1332 45.4761 11.3572 44.8898 11.8051C44.3116 12.253 43.8677 12.8883 43.5582 13.7108C43.2488 14.5333 43.094 15.5025 43.094 16.6182Z" fill="currentColor"/>
<path d="M66.7997 7.23636V11.1454H61.1499H55.5V7.23636H66.7997ZM58.0653 2.7409H63.2693V20.2341C63.2693 20.7146 63.3426 21.0892 63.4892 21.358C63.6358 21.6186 63.8394 21.8018 64.1 21.9077C64.3687 22.0135 64.6782 22.0665 65.0284 22.0665C65.2727 22.0665 65.517 22.0461 65.7614 22.0054C66.0057 21.9565 66.193 21.9199 66.3233 21.8954L67.1418 25.7679C66.8812 25.8493 66.5147 25.943 66.0423 26.0489C65.57 26.1629 64.9958 26.2321 64.3199 26.2565C63.0657 26.3054 61.9663 26.1384 61.0216 25.7557C60.085 25.3729 59.3562 24.7784 58.8349 23.9722C58.3137 23.1659 58.0572 22.1479 58.0653 20.9182V2.7409Z" fill="currentColor"/>
<path d="M79.4378 18.0108V7.23636H84.6418V26H79.6455V22.5918H79.45C79.0265 23.6912 78.3221 24.5748 77.3366 25.2426C76.3594 25.9104 75.1663 26.2443 73.7574 26.2443C72.5032 26.2443 71.3997 25.9593 70.4469 25.3892C69.494 24.8191 68.7489 24.0088 68.2114 22.9582C67.682 21.9077 67.4133 20.6494 67.4051 19.1835V7.23636H72.6091V18.2551C72.6172 19.3627 72.9145 20.2382 73.5008 20.8815C74.0872 21.5249 74.8731 21.8466 75.8585 21.8466C76.4856 21.8466 77.072 21.7041 77.6176 21.419C78.1633 21.1258 78.603 20.6942 78.9369 20.1241C79.279 19.5541 79.4459 18.8496 79.4378 18.0108Z" fill="currentColor"/>
<path d="M85.2565 26V7.23636H90.3017V10.5102H90.4972C90.8392 9.34564 91.4134 8.46609 92.2196 7.87159C93.0259 7.26893 93.9543 6.96761 95.0048 6.96761C95.2654 6.96761 95.5464 6.9839 95.8477 7.01647C96.1491 7.04905 96.4137 7.09384 96.6418 7.15085V11.7685C96.3974 11.6952 96.0595 11.63 95.6278 11.573C95.1962 11.516 94.8012 11.4875 94.4429 11.4875C93.6774 11.4875 92.9933 11.6544 92.3906 11.9883C91.7961 12.3141 91.3238 12.7702 90.9736 13.3565C90.6315 13.9429 90.4605 14.6188 90.4605 15.3844V26H85.2565Z" fill="currentColor"/>
<path d="M106.03 26.3665C104.099 26.3665 102.438 25.9756 101.045 25.1937C99.661 24.4038 98.5941 23.2881 97.8449 21.8466C97.0956 20.397 96.721 18.6827 96.721 16.7037C96.721 14.7736 97.0956 13.0796 97.8449 11.6219C98.5941 10.1641 99.6488 9.02802 101.009 8.21363C102.377 7.39924 103.981 6.99204 105.822 6.99204C107.06 6.99204 108.212 7.19157 109.279 7.59062C110.354 7.98153 111.291 8.57196 112.089 9.36193C112.895 10.1519 113.522 11.1454 113.97 12.3426C114.418 13.5316 114.642 14.9242 114.642 16.5204V17.9497H98.7977V14.7247H109.743C109.743 13.9755 109.58 13.3117 109.255 12.7335C108.929 12.1553 108.477 11.7033 107.899 11.3776C107.328 11.0436 106.665 10.8767 105.907 10.8767C105.117 10.8767 104.417 11.0599 103.806 11.4264C103.204 11.7847 102.731 12.2693 102.389 12.8801C102.047 13.4828 101.872 14.1546 101.864 14.8957V17.9619C101.864 18.8903 102.035 19.6925 102.377 20.3685C102.727 21.0444 103.22 21.5656 103.855 21.9321C104.49 22.2986 105.244 22.4818 106.115 22.4818C106.693 22.4818 107.223 22.4004 107.703 22.2375C108.184 22.0746 108.595 21.8303 108.937 21.5045C109.279 21.1788 109.54 20.7797 109.719 20.3074L114.532 20.625C114.287 21.7814 113.787 22.7913 113.029 23.6545C112.28 24.5097 111.311 25.1775 110.122 25.6579C108.941 26.1303 107.577 26.3665 106.03 26.3665Z" fill="currentColor"/>
</svg>
